/* XPM */
static char *_bed845bb0ec45eaa93a00132fe7572aNaa9zw93bZzAMCl2[] = {
/* columns rows colors chars-per-pixel */
"50 50 131 2 ",
"   c #2F4317",
".  c #2C431B",
"X  c #2F4E1E",
"o  c #314215",
"O  c #344A16",
"+  c #314D1A",
"@  c #2B641B",
"#  c #2E6A1D",
"$  c #37731D",
"%  c #2A4622",
"&  c #2D4826",
"*  c #264F2C",
"=  c #2B4D2D",
"-  c #235029",
";  c #29572E",
":  c #36572A",
">  c #274E30",
",  c #294D33",
"<  c #2E5F32",
"1  c #305F30",
"2  c #2B6226",
"3  c #2F6823",
"4  c #2C622A",
"5  c #2E682A",
"6  c #346E23",
"7  c #336F2C",
"8  c #347124",
"9  c #397224",
"0  c #35712C",
"q  c #3A762C",
"w  c #3C792D",
"e  c #2D6030",
"r  c #336536",
"t  c #326E31",
"y  c #357331",
"u  c #3A7633",
"i  c #3D7B35",
"p  c #435D1E",
"a  c #47621E",
"s  c #4D6D1F",
"d  c #445C20",
"f  c #476220",
"g  c #496125",
"h  c #506C27",
"j  c #40762A",
"k  c #427C2E",
"l  c #497B2E",
"z  c #437D35",
"x  c #4A7A30",
"c  c #448127",
"v  c #42832C",
"b  c #49842C",
"n  c #47882C",
"m  c #4B892C",
"M  c #52832C",
"N  c #55942D",
"B  c #59952C",
"V  c #5D9D2E",
"C  c #408235",
"Z  c #4B8533",
"A  c #468834",
"S  c #4A8B35",
"D  c #418239",
"F  c #49863A",
"G  c #4C8C39",
"H  c #548C34",
"J  c #5E8D34",
"K  c #538F3D",
"L  c #4F913A",
"P  c #529435",
"I  c #5C9633",
"U  c #5C9D33",
"Y  c #52933A",
"T  c #5C9B3B",
"R  c #6B9A2E",
"E  c #698F32",
"W  c #659436",
"Q  c #639F33",
"!  c #6F9832",
"~  c #64943C",
"^  c #629F3B",
"/  c #6C983B",
"(  c #719737",
")  c #709834",
"_  c #72963D",
"`  c #61A22F",
"'  c #69A32F",
"]  c #72AD2F",
"[  c #74B02F",
"{  c #63A133",
"}  c #6AA435",
"|  c #6FAF33",
" . c #6FAF35",
".. c #67A23B",
"X. c #60A13C",
"o. c #61A03D",
"O. c #6AA63D",
"+. c #6EAF3A",
"@. c #6EAE3E",
"#. c #71AF31",
"$. c #70AA36",
"%. c #70AF34",
"&. c #72AB3A",
"*. c #75B032",
"=. c #7AB331",
"-. c #7FB734",
";. c #7EB439",
":. c #7BB23D",
">. c #7CB43D",
",. c #639F41",
"<. c #689943",
"1. c #699944",
"2. c #6F9649",
"3. c #6F9A49",
"4. c #739640",
"5. c #75AB4F",
"6. c #79B142",
"7. c #7FB442",
"8. c #7CB248",
"9. c #86B932",
"0. c #83B836",
"q. c #85B934",
"w. c #80B73B",
"e. c #81B63E",
"r. c #83B93B",
"t. c #84B83B",
"y. c #83B83E",
"u. c #84B83C",
"i. c #83B842",
"p. c #81B844",
"a. c #83B748",
/* pixels */
"! ! ! ! ! ! ! ! ! ! ! ! ! ! ! ! ! ! ! ! ! ! ! ! ! ! ! ! ! ! ! ! ! ! ! ! ! ! ! ! ! ! ! ! ! ! ! ! ! ! ",
"! ! ! ! ! ! ! ! ! ! ! ! ! ! ! ! ! ! ! ! ! ! ! ! ! ! ! ! ! ! ! ! ! ! ! ! ! ! ! ! ! ! ! ! ! ! ! ! ! ! ",
"! ! ! ! ! ! ! ! ! ! ! ! ! ! ! ! ! ! ! ! ! ! ! ! ! ! ! ! ! ! ! ! ! ! ! ! ! ! ! ! ! ! ! ! ! ! ! ! ! ! ",
"! ! ! ! ! ! ! ! ! ! ! ! ! ! ! ! ! ! ! t t t t t t ! ! 7 t t t t t k ! R %.%.! ! %.| R ! ! ! ! ! ! ! ",
"! ! ! ! ! ! ! ! ! ! ! ) ! ) ! ! ! ! ! t t t t t t ! ! 7 t t t t t k ! R %.%.! ! %.| R ! ! ! ! ! ! ! ",
"! ! ! ! ! ! ! ! ! ! ! ! J 7 7 7 7 7 7 Y Y t.t.t.t.7 7 a.t.t.t.} Y A 7 9 ! R %.%.R ! ! ! ! ! ! ! ! ! ",
"! ! ! ! ! ! ! ! ! ! ! ! J t t t t t t P P 9.9.9.9.7 t i.9.9.9.' P A t 0 ! ! %.| R ! ! ! ! ! ! ! ! ! ",
"! ! ! ! ! ! ! ! ! ! M 9 c 7.7.7.7.7.7.w.w.B B 9.9.7.7.B B ;.9.0.w.e.7.8.9 9 8 8 ! ! ! ! ! ! ! ! ! ! ",
"! ! ! ! ! ! ! ! ! ! Z t c 9.9.9.9.9.9.9.9.P P 9.9.9.9.N P >.9.9.9.9.9.e.7 t t t / ! ! ! ! ! ! ! ! ! ",
"! ! ! ! ! ! ! ! ! ! Z t w { { { ` 9.9.{ { A A { { 9.9.N P >.9.] { { { Q I T Z Z l l / ! ! ! ! ! ! ! ",
"! ! ! ! ! ! ! ! ! ! Z t w P P P P 9.9.P P C C P P 9.9.N P >.9.' P P P I  . .P P 7 t / ! ! ! ! ! ! ! ",
"! ! ! ! ! ! ! ! J H Z i b U T S S } } U U P P U U $.$.S S O.$.{ U I S S { { { { 7 t / ! ! ! ! ! ! ! ",
"! ! ! ! ! ! ! ! j t C P U | @.C C C C | | | | | | P P C C L P { | { C C P P q.9.6 t / ! ! ! ! ! ! ! ",
"! ! ! ! R R W ~ j 0 b I V | +.n n C C *.*.| | | | Y Y m m I I { | { n n N N :.:.9 0 ~ ~ ! ! ! ! ! ! ",
"! ! ! ! %.| 6 t G P { | | | | |  .C C 9.9.| | | | C C y.9.[ | | | | | | |  .C C Y P 7 t <.! ! ! ! ! ",
"! ! ! ! %.%.6 t G P { #.#.|  .+.@.v v r.r.#.#.+.+.v v p.r.*.#.#.| | |  .+.@.C C P N 7 t <.! ! ! ! ! ",
"! ! ! ! ! ! 7 t G P } 9.-.| @.C C | | C C 9.9.C C  .| v C 6.9.=.| | | +.C C C C u.9.6 t <.! ! ! ! ! ",
"! ! ! ! ! ! 7 t G P } 9.-. .@.C C | | C C q.q.C C  .| v C 6.q.=.#.|  .+.C C C C y.q.6 t <.! ! ! ! ! ",
"! ! ! ! 7 t Y P w t I 9.&.C v | | | | | | C C | | | | | | n C ..9.} C v  .| | | v C C C 7 t <.! ! ! ",
"! ! ! ! 7 t Y P w t I 9.&.C v | | | | | | C C | | | | | | n C ..9.} C v  .| | | v C C C 7 t <.! ! ! ",
"! ! ! ! ! ! 7 t i C u t y C c 9.9.| | | | t t C C q.9.] | | | N C C C v q.9.#.| | | v C 7 t <.! ! ! ",
"! ! ! ! ! ! 7 t i C u t y C c 9.9.| | | | t t C C q.9.] | | | N C C C v q.9.#.| | | v C 7 t <.! ! ! ",
"! ! ! ! 7 t Y P P P P P G t 7 C C 9.9.| | t t C C q.9.9.9.[ | m t y C D t 7 t.9.6 t t t <.! ! ! ! ! ",
"! ! ! ! 7 t Y P P P P P G t 7 C C 9.9.| | t t C C q.9.9.9.[ | m t y C D t 7 t.9.6 t t t <.! ! ! ! ! ",
"! ! ! ! 7 t Y P P P C t y C D t t C C t t C C t t C C C C 0 t D P P P P P Y 7 t D C 7 t t t <.! ! ! ",
"! ! ! ! 7 t Y P P P C t y C D t t C C t t C C t t C C C C 0 t D P P P P P Y 7 t C C 7 t t t <.! ! ! ",
"! ! ! ! * > ,.{ 6 2 b { T P Y Y Y 7 7 Y Y P P Y Y 7 7 7 7 T { I P P P P P Y 7 t o.{ Y Y 7 t <.! ! ! ",
"! ! ! ! = , ^ ` 6 4 b ` U P P P Y t t P P P P P P t t t t T ` U P P P P P Y 7 t { ` P P 7 t <.! ! ! ",
"! ! ! ! = , 2 @ i D 0 @ $ { o.7 8 o.o.P P P P 7 7 Y Y Y Y # @ m { U P Y 8 8 D D @ @ o.{ 8 t <.! ! ! ",
"! ! ! ! = , < 4 i C y 4 9 ` o.t 7 ` ` P P P P t t P P P P 3 4 Z ` U P Y 7 t C C 2 4 o.` 8 t <.! ! ! ",
"! ! ! ! = , r t F G D i w 9 9 i i 9 9 U U P P t t U U P P Z F w 9 c U T 5 5 C C 4 4 o.` @ 5 1.! ! ! ",
"! ! ! ! = , t t G P A C i 4 2 C C 4 4 ` { P P t t { ` P P P P q 4 q { ^ 4 4 C C 4 4 o.` @ 4 1.! ! ! ",
"! ! ! ! : : 1 e z C D A z 4 2 C C y y b b k k u u m b k k Y I m u k b m 0 0 C C 0 y z l l x / ! ! ! ",
"! ! ! ! a f = , r t C P Z 4 2 C C C C 4 4 4 4 C C 4 4 4 4 T ` U P A 4 4 C C C C C C - , 2.! ! ! ! ! ",
"! ! E E p d = , r r z G D 7 6 A C C C 4 4 5 5 C C 5 5 4 4 K I H G z 5 5 i i C A C C - , 3.! R ! ! ! ",
"! ! a a o o = , , , < t w Y Y P P C C 4 4 C C C C C C 7 t 4 4 4 4 7 C D t 7 Y P C C - , 5.%.R ! ! ! ",
"! ! f f o o = = , , < t u Y Y Y Y D D 4 4 C C C C C C 7 7 4 4 4 4 7 C C 7 7 Y Y D D * = 5.%.R ! ! ! ",
"! ! f f o o o   = , , > ; 7 7 7 7 t t t t Y Y Y Y Y Y C C 5 4 u C C C C C C 7 7 * * X + _ ! ! ! ! ! ",
"! ! f f o o o o = , , , ; t t t t t t t t P P P P P P C C 2 4 u C C C C C C t t * , X + _ ! ! ! ! ! ",
"! ! f f o o o o     & , , * * * * * * * * 7 7 7 7 7 7 Y Y 0 t D Y Y Y Y 7 t * *     g f _ ! ! ! ! ! ",
"! ! f f o o o o o o & , , , , , , , , , , t t t t t t Y P 0 t D P P P Y 7 t > ,   o g f _ ! ! ! ! ! ",
"! ! f f o o o o o o     % , , , , , , , , * * * * * * * * * * * * * * * * * .   g g _ ( ) ! ! ! ! ! ",
"! ! f f o o o o o o o o . , , , , , , , , , , , , , , , , , , , , , , , , ,   o g f _ ! ! ! ! ! ! ! ",
"! ! _ _ g g g g O o o o   . . . . . . . . . . . . . . . . . . . . . . . .   g g _ _ ) ! ! ! ! ! ! ! ",
"! ! ! ! a f f f O o o o o o o o o o o o o o o o o o o o o o o o o o o o o o g f ( ! ! ! ! ! ! ! ! ! ",
"! ! ! ! _ _ _ _ h g g g g g g g g g g g g g g g g g g g g g g g g g g g g g 4._ ) ! ! ! ! ! ! ! ! ! ",
"! ! ! ! ! ! ! ! s f f f f f f f f f f f f f f f f f f f f f f f f f f f f a ) ! ! ! ! ! ! ! ! ! ! ! ",
"! ! ! ! ! ! ! ! _ 4.4.4.4.4.4.4.4.4.4.4.4.4.4.4.4.4.4.4.4.4.4.4.4.4.4.4.4._ ) ! ! ! ! ! ! ! ! ! ! ! ",
"! ! ! ! ! ! ! ! ! ! ! ! ! ! ! ! ! ! ! ! ! ! ! ! ! ! ! ! ! ! ! ! ! ! ! ! ! ! ! ! ! ! ! ! ! ! ! ! ! ! ",
"! ! ! ! ! ! ! ! ! ! ! ! ! ! ! ! ! ! ! ! ! ! ! ! ! ! ! ! ! ! ! ! ! ! ! ! ! ! ! ! ! ! ! ! ! ! ! ! ! ! "
};
