/* XPM */
static char *_c926692f8c9441cea35a6831d9ee788Ei6QgmqviyJ1fOxw[] = {
/* columns rows colors chars-per-pixel */
"50 50 8 1 ",
"  c None",
". c #3A3737",
"X c #827C7C",
"o c #BC8B6D",
"O c #CDAE67",
"+ c #B7B3B2",
"@ c #D6B39D",
"# c #EFE9E7",
/* pixels */
"                                                  ",
"                                                  ",
"                                                  ",
"                                                  ",
"                                                  ",
"                                                  ",
"                                                  ",
"                                                  ",
"                                                  ",
"                                                  ",
"                      ...  ..                     ",
"                      .+X. .#.                    ",
"                      .##+..#X.                   ",
"                      .###..##.                   ",
"                      .#@#+.##X.                  ",
"                      .#@@#X+#+.                  ",
"                       .@@#+.#+.                  ",
"                       .@@@#.X...                 ",
"                   .....o@@#X++##.                ",
"                 ..X+##+.o@#X####+.               ",
"                .+######.+@#######X.              ",
"               .+#######+X###+#.##+.              ",
"              .X#########X+###..+##+.             ",
"              .+####################X.            ",
"             .X############+########+.            ",
"             .+############X+#####.OO.            ",
"            .#X#############X.+####X.             ",
"            .#+#########+####+.X+X..              ",
"            .++########++###+X....                ",
"             .X##+####+.++++X.                    ",
"             .X+#+.++X.X++X...                    ",
"              .+++X....+++..X.                    ",
"              .X++##X..+###X.+.                   ",
"               ..###+. .####.+.                   ",
"                .....   ......                    ",
"                                                  ",
"                                                  ",
"                                                  ",
"                                                  ",
"                                                  ",
"                                                  ",
"                                                  ",
"                                                  ",
"                                                  ",
"                                                  ",
"                                                  ",
"                                                  ",
"                                                  ",
"                                                  ",
"                                                  "
};
